HIERARCHY
ROOT Hips
{
	OFFSET	0.00	0.00	0.00
	CHANNELS 6 Xposition Yposition Zposition Zrotation Xrotation Yrotation
	JOINT LeftUpLeg
	{
		OFFSET	 0.126116	-0.014019	-0.065224
		CHANNELS 3 Zrotation Xrotation Yrotation
		JOINT LeftLeg
		{
			OFFSET	 0.000000	 0.000000	 0.569914
			CHANNELS 3 Zrotation Xrotation Yrotation
			JOINT LeftFoot
			{
				OFFSET	 0.000000	 0.000000	 0.544423
				CHANNELS 3 Zrotation Xrotation Yrotation
				JOINT LeftToeBase
				{
					OFFSET	 0.000000	 0.000000	 0.207117
					CHANNELS 3 Zrotation Xrotation Yrotation
					End Site
					{
						OFFSET	 0.000000	 0.000000	 0.207117
					}
				}
			}
		}
	}
	JOINT RightUpLeg
	{
		OFFSET	-0.124023	-0.008373	-0.065224
		CHANNELS 3 Zrotation Xrotation Yrotation
		JOINT RightLeg
		{
			OFFSET	 0.000000	 0.000000	 0.570047
			CHANNELS 3 Zrotation Xrotation Yrotation
			JOINT RightFoot
			{
				OFFSET	 0.000000	 0.000000	 0.544354
				CHANNELS 3 Zrotation Xrotation Yrotation
				JOINT RightToeBase
				{
					OFFSET	 0.000000	 0.000000	 0.207540
					CHANNELS 3 Zrotation Xrotation Yrotation
					End Site
					{
						OFFSET	 0.000000	 0.000000	 0.207540
					}
				}
			}
		}
	}
	JOINT Spine
	{
		OFFSET	 0.000184	-0.007763	 0.117403
		CHANNELS 3 Zrotation Xrotation Yrotation
		JOINT Spine1
		{
			OFFSET	 0.000000	 0.000000	 0.137269
			CHANNELS 3 Zrotation Xrotation Yrotation
			JOINT Spine2
			{
				OFFSET	 0.000000	 0.000000	 0.156879
				CHANNELS 3 Zrotation Xrotation Yrotation
				JOINT LeftShoulder
				{
					OFFSET	 0.080501	-0.002496	 0.160144
					CHANNELS 3 Zrotation Xrotation Yrotation
					JOINT LeftArm
					{
						OFFSET	 0.000000	 0.000000	 0.164363
						CHANNELS 3 Zrotation Xrotation Yrotation
						JOINT LeftForeArm
						{
							OFFSET	 0.000000	 0.000000	 0.364576
							CHANNELS 3 Zrotation Xrotation Yrotation
							JOINT LeftHand
							{
								OFFSET	 0.000000	 0.000000	 0.360812
								CHANNELS 3 Zrotation Xrotation Yrotation
								JOINT LeftHandIndex1
								{
									OFFSET	 0.000000	 0.000000	 0.086006
									CHANNELS 3 Zrotation Xrotation Yrotation
									JOINT LeftHandIndex2
									{
										OFFSET	 0.000000	 0.000000	 0.047236
										CHANNELS 3 Zrotation Xrotation Yrotation
										JOINT LeftHandIndex3
										{
											OFFSET	-0.004284	-0.000551	 0.038166
											CHANNELS 3 Zrotation Xrotation Yrotation
											End Site
											{
												OFFSET	-0.004284	-0.000551	 0.038166
											}
										}
									}
								}
							}
						}
					}
				}
				JOINT Neck
				{
					OFFSET	 0.000000	 0.000000	 0.176489
					CHANNELS 3 Zrotation Xrotation Yrotation
					JOINT Head
					{
						OFFSET	 0.000000	-0.001747	 0.077940
						CHANNELS 3 Zrotation Xrotation Yrotation
						End Site
						{
							OFFSET	 0.000000	-0.001747	 0.077940
						}
					}
				}
				JOINT RightShoulder
				{
					OFFSET	-0.080363	 0.000306	 0.159706
					CHANNELS 3 Zrotation Xrotation Yrotation
					JOINT RightArm
					{
						OFFSET	 0.000000	 0.000000	 0.164196
						CHANNELS 3 Zrotation Xrotation Yrotation
						JOINT RightForeArm
						{
							OFFSET	 0.000000	 0.000000	 0.365611
							CHANNELS 3 Zrotation Xrotation Yrotation
							JOINT RightHand
							{
								OFFSET	 0.000000	 0.000000	 0.360648
								CHANNELS 3 Zrotation Xrotation Yrotation
								JOINT RightHandIndex1
								{
									OFFSET	 0.000000	 0.000000	 0.069977
									CHANNELS 3 Zrotation Xrotation Yrotation
									JOINT RightHandIndex2
									{
										OFFSET	 0.000000	 0.000000	 0.052305
										CHANNELS 3 Zrotation Xrotation Yrotation
										JOINT RightHandIndex3
										{
											OFFSET	 0.009002	-0.000782	 0.042196
											CHANNELS 3 Zrotation Xrotation Yrotation
											End Site
											{
												OFFSET	 0.009002	-0.000782	 0.042196
											}
										}
									}
								}
							}
						}
					}
				}
			}
		}
	}
}
MOTION
Frames:    13
Frame Time: 0.03333334
 3.432623	 6.569627	-0.037436	-108.711700	-2.440949	-1.069282	 7.206626	 19.585770	-176.722000	-3.566844	-11.619050	 1.457658	 3.360892	 84.164110	-0.076402	-2.313061	 38.616020	-0.239130	 4.597962	-35.459030	-178.152200	 2.235695	-45.938120	 6.013596	 106.828100	 89.886360	-100.728100	 2.373864	 30.570100	 0.047918	 24.473740	 3.922993	 2.472838	-12.955550	-0.351607	 0.269402	-15.343920	-2.238582	-1.810726	-91.776180	 78.527420	-180.000000	 35.536820	 60.691550	-53.400990	-21.556830	 12.117900	-52.965310	-34.919110	 1.584576	-5.621778	-3.812334	 37.924440	-2.927599	-2.450526	 36.184240	 0.754587	-1.378229	 35.397820	-2.634230	 1.209725	 2.143446	-4.940288	-2.575470	-9.605514	 2.560811	 89.782090	 78.203830	-180.000000	-38.352130	 71.751700	 35.918400	 15.970960	 7.095459	 40.881930	 25.062320	 3.305966	 9.617014	 6.437017	 35.671460	-0.771858	 2.830251	 35.756010	-7.813440	-2.350882	 35.473990	 5.254307
 3.367290	 6.593950	-0.039831	-108.089200	-1.931675	-1.302570	 7.447653	 22.396230	-177.151900	-3.404394	-11.623990	 1.538597	 4.223896	 84.375800	-0.578533	-2.270897	 42.217740	-0.336763	 5.226538	-36.065160	-177.493700	-0.155277	-38.905100	 3.853658	 150.903700	 89.467710	-145.653500	 2.362651	 32.445350	 0.090399	 19.513060	 3.569654	 2.215319	-13.041160	-0.586859	 0.128197	-15.381980	-2.487853	-1.898836	-91.776180	 78.527400	 180.000000	 36.386320	 60.587550	-54.756210	-19.538090	 8.031194	-50.920310	-32.358530	 1.450899	-5.586582	-3.812334	 37.924440	-2.927599	-2.450526	 36.184240	 0.754587	-1.378229	 35.397820	-2.634230	 1.228113	 2.137182	-4.996531	-2.521693	-9.865580	 3.201702	 89.782100	 78.203850	-180.000000	-36.720890	 72.742220	 34.008350	 13.809960	 3.090657	 36.085670	 21.785540	 2.973900	 9.650453	 6.437017	 35.671460	-0.771858	 2.830251	 35.756010	-7.813440	-2.350882	 35.473990	 5.254307
 3.293081	 6.622973	-0.042502	-107.369800	-2.011787	-1.324088	 7.924119	 25.692230	-178.430300	-2.559960	-11.598750	 1.720199	 5.393700	 82.776640	-0.782755	-2.208891	 46.313790	-0.460017	 4.876902	-35.570600	-177.525300	 0.485643	-38.042700	 3.991072	 138.704100	 89.600910	-133.106600	 2.366401	 31.851360	 0.076806	 13.319750	 3.449797	 1.935422	-13.133880	-0.694124	-0.148050	-15.301050	-2.556399	-1.992141	-91.776180	 78.527400	-180.000000	 38.095580	 61.397780	-55.840210	-17.311420	 3.748937	-46.801890	-29.312560	 1.122533	-5.675286	-3.812334	 37.924440	-2.927599	-2.450526	 36.184240	 0.754587	-1.378229	 35.397820	-2.634230	 1.311072	 2.125865	-5.059746	-2.418448	-9.967648	 3.824299	 89.782120	 78.203870	 180.000000	-35.347120	 73.460630	 32.492910	 10.568890	-0.514938	 30.664660	 18.112510	 2.402853	 9.808948	 6.437017	 35.671460	-0.771858	 2.830251	 35.756010	-7.813440	-2.350882	 35.473990	 5.254307
 3.210762	 6.657438	-0.045239	-106.541300	-2.194542	-1.230669	 8.664883	 29.091400	 179.452200	-1.368895	-11.567630	 1.920813	 5.880092	 78.139950	 0.019056	-2.132594	 50.198620	-0.592786	 4.502182	-33.598430	-178.163800	 2.458592	-40.812950	 5.489360	 11.846250	 89.104520	-5.111473	 2.380358	 29.315390	 0.020176	 5.971160	 3.186666	 1.783141	-13.263270	-0.696975	-0.518580	-15.084750	-2.297932	-2.107864	-91.776180	 78.527380	-180.000000	 40.382770	 62.864830	-56.075240	-14.305860	-0.304088	-40.702080	-25.915340	 0.567504	-5.861979	-3.812334	 37.924440	-2.927599	-2.450526	 36.184240	 0.754587	-1.378229	 35.397820	-2.634230	 1.511346	 2.617367	-5.128608	-2.257087	-10.196610	 4.276666	 89.782120	 78.203870	 180.000000	-33.696780	 73.947610	 30.501260	 6.422138	-3.490076	 24.940840	 14.255070	 1.565811	 10.061580	 6.437017	 35.671460	-0.771858	 2.830251	 35.756010	-7.813440	-2.350882	 35.473990	 5.254307
 3.118018	 6.696534	-0.044529	-105.145600	-2.481390	-1.029145	 9.641797	 32.436700	 176.854300	-1.335174	-11.116430	 1.827470	 5.019680	 67.729420	 1.358469	-2.113288	 51.042880	-0.624177	 2.841171	-31.034860	-179.140800	 4.680837	-44.616720	 6.658622	 3.537916	 85.662440	 3.369375	 2.390988	 26.831680	-0.033347	-2.985111	 2.903041	 1.269435	-13.478130	-0.612402	-0.829160	-14.951650	-2.067596	-2.293883	-91.776180	 78.527400	-180.000000	 43.155480	 65.106980	-55.836560	-9.559620	-4.130961	-31.617020	-21.219750	-0.363382	-6.139780	-3.812334	 37.924440	-2.927599	-2.450526	 36.184240	 0.754587	-1.378229	 35.397820	-2.634230	 1.665652	 3.054928	-4.976445	-2.147874	-10.051810	 4.326636	 89.782100	 78.203850	-180.000000	-31.987390	 74.184920	 28.317250	 1.440159	-5.776586	 18.870560	 10.301270	 0.337243	 10.393480	 6.437017	 35.671460	-0.771858	 2.830251	 35.756010	-7.813440	-2.350882	 35.473990	 5.254307
 3.047806	 6.732641	-0.036442	-103.936300	-2.755211	-1.506285	 7.455193	 20.513170	 175.757300	-1.168267	-36.568710	 1.535436	 2.640135	 62.397990	 0.427980	-2.216957	 45.838780	-0.444933	 1.635019	-28.940850	-179.346300	 5.512061	-47.790250	 6.988601	 3.427357	 84.036550	 2.915923	 2.403046	 22.488340	-0.123238	-11.236100	 2.367287	 1.768948	-13.543870	-0.493709	-0.876141	-15.036610	-1.598161	-2.233585	-91.776180	 78.527380	-180.000000	 44.522490	 67.475030	-55.156910	-4.623092	-6.643890	-28.411930	-16.172040	-1.523588	-6.394230	-3.812334	 37.924440	-2.927599	-2.450526	 36.184240	 0.754587	-1.378229	 35.397820	-2.634230	 1.661002	 2.959807	-4.762305	-2.161223	-9.517390	 4.004933	 89.782120	 78.203870	 180.000000	-32.791200	 73.811780	 29.676010	-3.803641	-7.420281	 20.075990	 6.530419	-1.094878	 10.682260	 6.437017	 35.671460	-0.771858	 2.830251	 35.756010	-7.813440	-2.350882	 35.473990	 5.254307
 2.978909	 6.767213	-0.028513	-102.625900	-3.181230	 0.866212	 7.523795	 11.242290	 171.151000	-2.902268	-55.105050	-1.199490	 0.117047	 54.812950	 1.105686	-2.356640	 33.567710	-0.114899	 0.527225	-23.719570	 177.389900	 6.735698	-47.227710	 6.999623	 2.653915	 85.076460	 3.910703	 2.407639	 17.988730	-0.212745	-19.904760	 3.712761	-0.658732	-13.583970	-0.414427	-1.406933	-14.671920	-2.046613	-2.453053	-91.776180	 78.527400	 180.000000	 43.215930	 69.973980	-52.157460	-0.630586	-8.790606	-27.871060	-11.324510	-2.983109	-6.575176	-3.812334	 37.924440	-2.927599	-2.450526	 36.184240	 0.754587	-1.378229	 35.397820	-2.634230	 1.466207	 2.901833	-4.609041	-2.382881	-9.155344	 3.322705	 89.782120	 78.203930	 180.000000	-34.758940	 72.785080	 32.872360	-9.191004	-9.732047	 23.610380	 2.625530	-2.781134	 10.886170	 6.437017	 35.671460	-0.771858	 2.830251	 35.756010	-7.813440	-2.350882	 35.473990	 5.254307
 2.911355	 6.799674	-0.021367	-101.057300	-3.145739	 2.635879	 5.097212	 0.937606	 169.581900	-5.933124	-69.424220	-6.699850	-1.120610	 59.560390	 0.421368	-2.347825	 34.756170	-0.143026	 0.225320	-18.873820	 174.855700	 7.551348	-45.343300	 6.873123	 0.685726	 87.308050	 6.359506	 2.407682	 17.719830	-0.218016	-28.529180	 4.110204	-2.393947	-13.699930	-0.363231	-1.743554	-15.014430	-2.589374	-2.509672	-91.776180	 78.527400	-180.000000	 40.908670	 71.690480	-48.919570	 2.779014	-11.135520	-28.622380	-6.970082	-4.813862	-6.608742	-3.812334	 37.924440	-2.927599	-2.450526	 36.184240	 0.754587	-1.378229	 35.397820	-2.634230	 1.178538	 2.977810	-4.422851	-2.629436	-9.586341	 2.584836	 89.782120	 78.203870	 180.000000	-37.578510	 71.168850	 38.479120	-14.429830	-13.097560	 27.554500	-1.698986	-4.868718	 10.934990	 6.437017	 35.671460	-0.771858	 2.830251	 35.756010	-7.813440	-2.350882	 35.473990	 5.254307
 2.851892	 6.826414	-0.017501	-100.633000	-3.151334	 2.972650	 2.500363	-7.519331	 170.630000	-6.388046	-75.517060	-9.031143	-1.046689	 67.058260	 0.090143	-2.310829	 38.831020	-0.244718	 0.609203	-15.367650	 173.916400	 7.513408	-44.655030	 6.811048	-34.049330	 89.774450	 41.316270	 2.407579	 18.236810	-0.207885	-35.110610	 4.313375	-2.657314	-13.396510	-0.330893	-1.539497	-15.304550	-2.741209	-2.219004	-91.776180	 78.527380	-180.000000	 38.277490	 72.306720	-44.914390	 6.830632	-14.499230	-31.012490	-2.243503	-6.685927	-6.419154	-3.812334	 37.924440	-2.927599	-2.450526	 36.184240	 0.754587	-1.378229	 35.397820	-2.634230	 0.802544	 2.980964	-4.140551	-2.953391	-9.578417	 1.489422	 89.782120	 78.203870	 180.000000	-38.802460	 69.399250	 42.678300	-18.518880	-17.178330	 31.508000	-5.851660	-7.032264	 10.756650	 6.437017	 35.671460	-0.771858	 2.830251	 35.756010	-7.813440	-2.350882	 35.473990	 5.254307
 2.790965	 6.850418	-0.017605	-100.593600	-2.915787	 4.218554	 0.929715	-14.118810	 171.208000	-8.590193	-75.798650	-12.001020	-1.787427	 76.251930	-0.428759	-2.288137	 40.849650	-0.298644	 0.710743	-11.854350	 172.351700	 7.295423	-44.359710	 6.374146	-173.190700	 88.077870	-179.825000	 2.406245	 20.286360	-0.167410	-40.439480	 4.642817	-4.134071	-12.862200	-0.334900	-1.492662	-15.636230	-3.248281	-1.865759	-91.776180	 78.527400	 180.000000	 37.509060	 72.379870	-41.820690	 10.361990	-19.133370	-35.294620	 2.016060	-8.661365	-5.968766	-3.812334	 37.924440	-2.927599	-2.450526	 36.184240	 0.754587	-1.378229	 35.397820	-2.634230	 0.377016	 3.012833	-3.796766	-3.284374	-9.233972	 0.600038	 89.782090	 78.203890	-180.000000	-39.194030	 67.226580	 45.549470	-21.323440	-22.424130	 36.522250	-9.487031	-9.342092	 10.304890	 6.437017	 35.671460	-0.771858	 2.830251	 35.756010	-7.813440	-2.350882	 35.473990	 5.254307
 2.733484	 6.871998	-0.023501	-100.754700	-2.627440	 5.273507	-0.182600	-20.145910	 171.771300	-12.011310	-71.598590	-15.377350	-3.550361	 82.832840	-1.115968	-2.278279	 41.647160	-0.320703	 0.618865	-9.226073	 171.151500	 6.918303	-44.469760	 5.778726	-174.508300	 85.895920	-179.014600	 2.405257	 21.118160	-0.150820	-44.150940	 4.745667	-5.341785	-12.331470	-0.598926	-1.569170	-15.666350	-3.699847	-1.578490	-91.776180	 78.527400	 180.000000	 36.058270	 72.752100	-37.927810	 12.064590	-24.311190	-40.076920	 5.907893	-10.613660	-5.237209	-3.812334	 37.924440	-2.927599	-2.450526	 36.184240	 0.754587	-1.378229	 35.397820	-2.634230	 0.070486	 3.029291	-3.596448	-3.503508	-8.943113	 0.373252	 89.782140	 78.203830	 180.000000	-38.652380	 65.064740	 46.830980	-22.444890	-28.437010	 42.326230	-12.802380	-11.634540	 9.549232	 6.437017	 35.671460	-0.771858	 2.830251	 35.756010	-7.813440	-2.350882	 35.473990	 5.254307
 2.675448	 6.892639	-0.030041	-100.845400	-2.191662	 5.956411	-0.607311	-24.555200	 172.434400	-11.254020	-63.769840	-13.710600	-4.718073	 86.317570	-1.831016	-2.275848	 41.837260	-0.326029	 0.745327	-5.976867	 170.292900	 6.597251	-43.346340	 5.198927	-174.467500	 84.073880	-179.279900	 2.403690	 22.132700	-0.130433	-46.181900	 4.827501	-6.085326	-11.890510	-0.973261	-1.638296	-15.498410	-4.164399	-1.407131	-91.776180	 78.527400	 180.000000	 33.341110	 73.403600	-33.197740	 12.479570	-29.600300	-44.543740	 10.112920	-12.527810	-4.188010	-3.812334	 37.924440	-2.927599	-2.450526	 36.184240	 0.754587	-1.378229	 35.397820	-2.634230	-0.019030	 3.094380	-3.529070	-3.577826	-9.192110	 0.384345	 89.782120	 78.203870	 180.000000	-37.577340	 63.137700	 47.474080	-21.888980	-34.818840	 48.690270	-16.338000	-13.895650	 8.443229	 6.437017	 35.671460	-0.771858	 2.830251	 35.756010	-7.813440	-2.350882	 35.473990	 5.254307
 2.608716	 6.914783	-0.035386	-100.397700	-1.548703	 6.644146	 0.016611	-27.277380	 173.078100	-8.553557	-51.825800	-9.026338	-3.685787	 86.564760	-3.444468	-2.287266	 40.922290	-0.300633	 1.025110	-1.214247	 169.363500	 6.200060	-39.812390	 4.269006	-176.082400	 83.258610	-177.939400	 2.402325	 22.853410	-0.115840	-46.437660	 4.408920	-6.917930	-11.717140	-1.376405	-1.699671	-15.563930	-4.854017	-1.425077	-91.776180	 78.527400	-180.000000	 30.277940	 73.900890	-28.719650	 13.118700	-34.784910	-47.849380	 15.470560	-14.464510	-2.682405	-3.812334	 37.924440	-2.927599	-2.450526	 36.184240	 0.754587	-1.378229	 35.397820	-2.634230	 0.116848	 3.358603	-3.656708	-3.484510	-10.249630	 0.631069	 89.782120	 78.203870	 180.000000	-36.416860	 61.378850	 48.455970	-19.524800	-41.486050	 55.925370	-20.602230	-16.223190	 6.825693	 6.437017	 35.671460	-0.771858	 2.830251	 35.756010	-7.813440	-2.350882	 35.473990	 5.254307
